<svg xmlns="http://www.w3.org/2000/svg" xmlns:xlink="http://www.w3.org/1999/xlink"><symbol id="icon-box" viewBox="0 0 42 42">
<path d="M17.0626 9.40014H12.9826L21.0001 0.320923L29.0175 9.39949H24.9375V24.2813H23.6251V8.08764H26.1076L21.0001 2.30411L15.8925 8.08764H18.3751V24.2813H17.0626V9.40014ZM9.8438 25.5938H32.1563V41.3438H9.8438V25.5938ZM30.8438 26.9063H23.6251V40.0313H30.8438V26.9063ZM15.0938 27.8959C15.0938 28.0737 15.2388 28.2188 15.4167 28.2188H18.0522C18.23 28.2188 18.3751 28.0737 18.3751 27.8959V26.9063H15.0938V27.8959ZM11.1563 40.0313H22.3126V26.9063H19.6876V27.8959C19.6876 28.7976 18.9539 29.5313 18.0522 29.5313H15.4167C14.515 29.5313 13.7813 28.7976 13.7813 27.8959V26.9063H11.1563V40.0313ZM5.9063 41.3438H7.2188V19.6875H5.93583L9.18755 15.5065L12.4393 19.6875H11.1563V24.2813H12.4688V21H15.1233L9.18755 13.3685L3.25177 21H5.9063V41.3438ZM29.5313 17.7188V24.2813H30.8438V16.4063H29.5608L32.8125 12.2253L36.0643 16.4063H34.7813V41.3438H36.0938V17.7188H38.7483L32.8125 10.0872L26.8768 17.7188H29.5313Z" fill="#685ED6"/>
</symbol><symbol id="icon-burger" viewBox="0 0 30 18">
<rect width="30" height="2" rx="1" fill="#685ED6"/>
<rect y="8" width="30" height="2" rx="1" fill="#33AFE1"/>
<rect y="16" width="30" height="2" rx="1" fill="#18E1F7"/>
</symbol><symbol id="icon-cross" viewBox="0 0 28 28">
<rect y="1.75" width="2.47487" height="37.123" rx="1.23743" transform="rotate(-45 0 1.75)" fill="#685ED6"/>
<rect x="1.75" y="28" width="2.47487" height="37.123" rx="1.23743" transform="rotate(-135 1.75 28)" fill="#685ED6"/>
</symbol><symbol id="icon-money" viewBox="0 0 42 42">
<path d="M5.62061 33.079C5.62061 32.0574 4.7754 31.226 3.73679 31.226C2.69818 31.226 1.85297 32.0574 1.85297 33.079C1.85297 34.1006 2.69818 34.9319 3.73679 34.9319C4.7754 34.9319 5.62061 34.1006 5.62061 33.079ZM3.10885 33.079C3.10885 32.738 3.39017 32.4613 3.73679 32.4613C4.08341 32.4613 4.36473 32.738 4.36473 33.079C4.36473 33.4199 4.08341 33.6966 3.73679 33.6966C3.39017 33.6966 3.10885 33.4199 3.10885 33.079ZM1.85297 24.0886C1.85297 25.1102 2.69818 25.9416 3.73679 25.9416C4.7754 25.9416 5.62061 25.1102 5.62061 24.0886C5.62061 23.067 4.7754 22.2356 3.73679 22.2356C2.69818 22.2356 1.85297 23.067 1.85297 24.0886ZM3.73679 23.471C4.08341 23.471 4.36473 23.7477 4.36473 24.0886C4.36473 24.4296 4.08341 24.7063 3.73679 24.7063C3.39017 24.7063 3.10885 24.4296 3.10885 24.0886C3.10885 23.7477 3.39017 23.471 3.73679 23.471ZM19.4353 29.0299C19.4353 29.3708 19.7166 29.6475 20.0633 29.6475H21.3191C22.3578 29.6475 23.203 30.4789 23.203 31.5005C23.203 32.5221 22.3578 33.3535 21.3191 33.3535V34.5888H20.0633V33.3535C19.0246 33.3535 18.1794 32.5221 18.1794 31.5005H19.4353C19.4353 31.8415 19.7166 32.1182 20.0633 32.1182H21.3191C21.6658 32.1182 21.9471 31.8415 21.9471 31.5005C21.9471 31.1596 21.6658 30.8828 21.3191 30.8828H20.0633C19.0246 30.8828 18.1794 30.0515 18.1794 29.0299C18.1794 28.0083 19.0246 27.1769 20.0633 27.1769V25.9416H21.3191V27.1769C22.3578 27.1769 23.203 28.0083 23.203 29.0299H21.9471C21.9471 28.6889 21.6658 28.4122 21.3191 28.4122H20.0633C19.7166 28.4122 19.4353 28.6889 19.4353 29.0299ZM39.5294 33.079C39.5294 34.1006 38.6842 34.9319 37.6456 34.9319C36.607 34.9319 35.7618 34.1006 35.7618 33.079C35.7618 32.0574 36.607 31.226 37.6456 31.226C38.6842 31.226 39.5294 32.0574 39.5294 33.079ZM38.2736 33.079C38.2736 32.738 37.9922 32.4613 37.6456 32.4613C37.299 32.4613 37.0177 32.738 37.0177 33.079C37.0177 33.4199 37.299 33.6966 37.6456 33.6966C37.9922 33.6966 38.2736 33.4199 38.2736 33.079ZM37.6456 22.2356C38.6842 22.2356 39.5294 23.067 39.5294 24.0886C39.5294 25.1102 38.6842 25.9416 37.6456 25.9416C36.607 25.9416 35.7618 25.1102 35.7618 24.0886C35.7618 23.067 36.607 22.2356 37.6456 22.2356ZM37.6456 23.471C37.299 23.471 37.0177 23.7477 37.0177 24.0886C37.0177 24.4296 37.299 24.7063 37.6456 24.7063C37.9922 24.7063 38.2736 24.4296 38.2736 24.0886C38.2736 23.7477 37.9922 23.471 37.6456 23.471ZM34.5059 33.6966V32.4613H33.25V29.373H30.7383V30.6083H31.9941V33.6966H34.5059ZM34.5059 24.7063V23.471H31.9941V26.5592H30.7383V27.7946H33.25V24.7063H34.5059ZM6.8765 32.4613V33.6966H9.38826V30.6083H10.6441V29.373H8.13238V32.4613H6.8765ZM10.6441 26.5592H9.38826V23.471H6.8765V24.7063H8.13238V27.7946H10.6441V26.5592ZM18.1794 14.2061V13.9189L17.9735 13.7836C17.0422 13.1721 16.4457 12.1963 16.322 11.1178H15.6677C14.6291 11.1178 13.7838 10.2865 13.7838 9.26485C13.7838 8.80964 13.9584 8.39704 14.2366 8.07401C13.9427 7.48476 13.7838 6.83931 13.7838 6.17657C13.7838 3.79303 15.7562 1.85297 18.1794 1.85297H23.203C25.6262 1.85297 27.5986 3.79303 27.5986 6.17657C27.5986 6.83931 27.4397 7.48476 27.1464 8.07463C27.4246 8.39766 27.5986 8.80964 27.5986 9.26485C27.5986 10.2865 26.7533 11.1178 25.7147 11.1178H25.0604C24.9367 12.1963 24.3402 13.1728 23.4089 13.7836L23.203 13.9189V14.2061H32.6221C32.9021 14.2061 33.1583 14.3 33.3675 14.4526L33.618 14.2061C34.4274 13.4099 35.8403 13.4099 36.6497 14.2061H37.0177C38.0563 14.2061 38.9015 15.0375 38.9015 16.0591V17.2944C38.9015 18.316 38.0563 19.1474 37.0177 19.1474H33.878H31.9941H26.3427V21.6174H27.4548L29.0968 27.2714C29.353 28.1491 29.4824 29.0595 29.4824 29.9755C29.4824 33.0564 27.986 36.0008 25.4799 37.85L23.7053 39.1588C22.8394 39.7963 21.7688 40.1471 20.6912 40.1471C19.6137 40.1471 18.5443 39.7975 17.6802 39.1613L15.9032 37.85C13.3964 36.0008 11.9 33.057 11.9 29.9755C11.9 29.0595 12.0294 28.1491 12.2856 27.2702L13.927 21.6174H15.0397V19.1474H9.38826H7.50444H4.36473C3.32612 19.1474 2.48091 18.316 2.48091 17.2944V16.0591C2.48091 15.0375 3.32612 14.2061 4.36473 14.2061H4.7327C5.54212 13.4099 6.95499 13.4099 7.76441 14.2061L8.01495 14.4526C8.22406 14.3 8.48026 14.2061 8.76032 14.2061H18.1794ZM7.50444 17.9121V15.6971L6.8765 15.0795C6.54055 14.7503 5.95656 14.7503 5.62061 15.0795L5.25264 15.4414H4.36473C4.01811 15.4414 3.73679 15.7181 3.73679 16.0591V17.2944C3.73679 17.6353 4.01811 17.9121 4.36473 17.9121H7.50444ZM26.5085 22.8527H24.8369C23.7292 22.8527 22.6573 22.5327 21.7361 21.9287L20.6912 21.2431L19.6457 21.9287C18.7251 22.5334 17.652 22.8527 16.543 22.8527H14.8746L13.4937 27.6099C13.2696 28.3789 13.1559 29.1744 13.1559 29.9755C13.1559 32.6697 14.4645 35.2441 16.6567 36.8618L18.4325 38.1724C19.7286 39.1255 21.6526 39.1267 22.9524 38.17L24.7257 36.8618C26.9179 35.2447 28.2265 32.6703 28.2265 29.9755C28.2265 29.1744 28.1128 28.3789 27.8899 27.6111L26.5085 22.8527ZM34.5059 15.0795L33.878 15.6971V17.9121H37.0177C37.3643 17.9121 37.6456 17.6353 37.6456 17.2944V16.0591C37.6456 15.7181 37.3643 15.4414 37.0177 15.4414H36.1298L35.7618 15.0795C35.4258 14.7503 34.8419 14.7503 34.5059 15.0795ZM32.6221 15.4414H24.8902H23.203L20.6912 17.5501L18.4861 15.4414H16.4922H8.76032V17.9121H9.38826H16.2956V21.6174H16.543C17.4033 21.6174 18.2353 21.3697 18.9487 20.9009L20.6912 19.7576L22.4331 20.9009C23.1471 21.3697 23.9778 21.6174 24.8362 21.6174H25.0868V17.9121H31.9941H32.6221V15.4414ZM26.3427 9.26485C26.3427 8.9239 26.0614 8.64719 25.7147 8.64719H25.0868V9.02891V9.88251H25.7147C26.0614 9.88251 26.3427 9.6058 26.3427 9.26485ZM15.6677 9.88251H16.2956V8.64719H15.6677C15.3211 8.64719 15.0397 8.9239 15.0397 9.26485C15.0397 9.6058 15.3211 9.88251 15.6677 9.88251ZM17.9214 5.81585C18.5236 5.61882 19.1684 5.66268 19.7367 5.94309L20.7578 6.44525C21.2218 6.67378 21.7417 6.79422 22.2611 6.79422C22.7822 6.79422 23.3034 6.88317 23.7951 7.05302L24.3791 7.16337L25.0868 7.41188H25.7147C25.834 7.41188 25.9496 7.42547 26.0626 7.44647C26.246 7.0487 26.3427 6.61757 26.3427 6.17657C26.3427 4.47369 24.9342 3.08828 23.203 3.08828H18.1794C16.4482 3.08828 15.0397 4.47369 15.0397 6.17657C15.0397 6.61757 15.1364 7.0487 15.3192 7.44647C15.4328 7.42547 15.5484 7.41188 15.6677 7.41188H16.3873C16.5945 6.6744 17.1565 6.06662 17.9214 5.81585ZM18.6699 12.7558L18.8758 12.8911C19.2262 13.1209 19.4353 13.5051 19.4353 13.9189V14.5681L20.6912 15.8034L21.9471 14.5681V13.9189C21.9471 13.5051 22.1562 13.1209 22.5066 12.8911L22.7125 12.7558C23.4127 12.2963 23.8309 11.5279 23.8309 10.7003V8.41125L23.765 8.37851C23.3003 8.14998 22.7804 8.02954 22.2611 8.02954C21.5477 8.02954 20.8337 7.86339 20.1958 7.55024L19.1747 7.04808C18.906 6.9159 18.6008 6.8949 18.3195 6.98755C17.8598 7.13888 17.5515 7.55888 17.5515 8.03448V10.7003C17.5515 11.5279 17.9697 12.2963 18.6699 12.7558Z" fill="#685ED6"/>
</symbol><symbol id="icon-teacher" viewBox="0 0 42 42">
<path d="M9.73349 17.6963L9.66632 17.562L10.8109 16.9894L10.8781 17.1244C11.1218 17.6125 11.6119 17.9151 12.1576 17.9151C12.7034 17.9151 13.1935 17.6119 13.4372 17.1244L13.5044 16.9894L14.649 17.562L14.5818 17.697C14.1199 18.6208 13.1909 19.1947 12.1576 19.1947C11.1244 19.1947 10.1948 18.6208 9.73349 17.6963ZM0.00172334 32.6302V32.071C0.00172334 30.1939 0.51739 28.3743 1.48475 26.7768L0.255078 24.6252C0.000443772 24.1812 -0.0654541 23.6636 0.0695406 23.1678C0.204535 22.6732 0.524428 22.2606 0.969718 22.0066C1.25698 21.8415 1.58583 21.7538 1.92108 21.7538C2.60949 21.7538 3.24799 22.1249 3.58836 22.7231L4.20639 23.8044C4.87369 23.3175 5.5992 22.9119 6.36439 22.599C4.94854 21.8978 3.85387 20.6528 3.35036 19.1576C1.81871 18.9209 0.641508 17.5933 0.641508 15.9958V15.5767C0.641508 15.3912 0.657503 15.2063 0.689492 15.0271L1.7848 8.72527C2.66451 3.67033 7.02656 0.00115967 12.1576 0.00115967C17.2887 0.00115967 21.6508 3.67033 22.5305 8.72527L23.6264 15.0284C23.6578 15.2063 23.6738 15.3912 23.6738 15.5767V15.9958C23.6738 17.5933 22.4966 18.9209 20.9649 19.157C20.4614 20.6528 19.3667 21.8978 17.9496 22.599C21.7231 24.1524 24.3136 27.8881 24.3136 32.071V32.6302C24.3136 35.0998 22.304 37.1087 19.8351 37.1087H17.9157V39.6678H6.39957V37.1087H4.48022C2.01065 37.1087 0.00172334 35.0998 0.00172334 32.6302ZM7.03936 35.8291H10.2383V33.5348L9.5985 32.8951C9.25622 32.5534 8.66121 32.5528 8.31893 32.8951L7.94402 33.27H7.03936C6.6862 33.27 6.39957 33.5572 6.39957 33.9098V35.1893C6.39957 35.5419 6.6862 35.8291 7.03936 35.8291ZM4.89032 27.5804L3.82316 28.2918L5.93701 31.9904H6.39957V30.2214L4.89032 27.5804ZM8.95871 26.8721H7.67914V31.7767C8.52174 31.1792 9.75845 31.2463 10.5032 31.9898L10.7584 32.2457C10.9715 32.0877 11.2325 31.9904 11.5179 31.9904H16.6361V26.8721H15.3566C15.3566 27.5778 14.7827 28.1517 14.077 28.1517H10.2383C9.5326 28.1517 8.95871 27.5778 8.95871 26.8721ZM14.077 13.4366C14.077 14.4948 14.9381 15.356 15.9964 15.356C17.0546 15.356 17.9157 14.4948 17.9157 13.4366C17.9157 12.3784 17.0546 11.5173 15.9964 11.5173C14.9381 11.5173 14.077 12.3784 14.077 13.4366ZM13.9023 11.0381C12.7993 10.6126 11.8051 9.91847 11.0271 8.98502L10.276 8.0842C10.0617 7.82637 9.74629 7.67858 9.41104 7.67858C8.98111 7.67858 8.59468 7.91722 8.40274 8.30173L8.13339 8.84171L7.16988 9.16288C6.70923 9.31643 6.39957 9.74636 6.39957 10.232V10.8941C6.93571 10.4879 7.59597 10.2377 8.31893 10.2377C9.86337 10.2377 11.1557 11.3388 11.4532 12.7969H12.862C13.0041 12.0976 13.3841 11.4911 13.9023 11.0381ZM8.31893 11.5173C7.26073 11.5173 6.39957 12.3784 6.39957 13.4366C6.39957 14.4948 7.26073 15.356 8.31893 15.356C9.37713 15.356 10.2383 14.4948 10.2383 13.4366C10.2383 12.3784 9.37713 11.5173 8.31893 11.5173ZM6.39957 16.0706C6.39957 17.6637 7.41491 19.0719 8.92609 19.5754C9.7111 19.8377 10.2383 20.569 10.2383 21.3962V22.3156L10.3931 22.9349C10.5959 23.7468 11.3214 24.313 12.1576 24.313C12.9938 24.313 13.7187 23.7468 13.9222 22.9355L14.077 22.3162V21.3968C14.077 20.5696 14.6042 19.8377 15.3892 19.576C16.9004 19.0725 17.9157 17.6643 17.9157 16.0713V15.9798C17.3796 16.3861 16.7193 16.6362 15.9964 16.6362C14.4519 16.6362 13.1595 15.5351 12.862 14.0771H11.4532C11.1557 15.5351 9.86401 16.6362 8.31893 16.6362C7.59597 16.6362 6.93571 16.3861 6.39957 15.9798V16.0706ZM10.2383 25.5926V26.8721H14.0776L14.077 25.5926H10.2383ZM16.6361 37.1087H12.1576H10.2383H7.67914V38.3883H16.6361V37.1087ZM15.9528 23.313L15.187 23.1486L15.1627 23.2458C15.0527 23.686 14.8447 24.0769 14.5767 24.4147C15.0348 24.6098 15.3566 25.0641 15.3566 25.5926H17.9157V31.9904H20.2304L21.0468 33.6238L19.9022 34.1964L19.4397 33.27H11.5179V35.8291H12.1576H19.8351C21.5989 35.8291 23.034 34.3941 23.034 32.6302V32.071C23.034 27.8759 20.0558 24.1927 15.9528 23.313ZM7.15644 21.5651L8.24088 22.0302L8.95808 21.8767V21.3968C8.95808 21.1211 8.78277 20.8767 8.52046 20.7897C6.48595 20.1115 5.11936 18.2158 5.11936 16.0713V10.2313C5.11936 9.19423 5.78026 8.27678 6.76425 7.94857L7.22426 7.79566L7.25753 7.72976C7.66827 6.90892 8.49295 6.39901 9.4104 6.39901C10.1263 6.39901 10.8007 6.71442 11.2594 7.26528L12.0105 8.16609C12.7283 9.02789 13.6695 9.64336 14.7129 9.96965C14.5703 9.69902 14.4621 9.406 14.4097 9.0893C14.2696 8.24991 13.5959 7.67858 12.7974 7.67858V6.39901C14.2235 6.39901 15.4289 7.42011 15.663 8.82699C15.8031 9.66639 16.4775 10.2377 17.2759 10.2377H18.5555H19.1953V16.0706C19.1953 18.2152 17.8281 20.1115 15.7942 20.7891C15.5325 20.8761 15.3566 21.1205 15.3566 21.3962V21.876L16.0738 22.0296L17.1576 21.5645C18.4941 20.9919 19.5017 19.8089 19.8543 18.3988L19.9745 17.9151H20.4742C21.5324 17.9151 22.3936 17.054 22.3936 15.9958V15.5767C22.3936 15.4673 22.384 15.3579 22.3654 15.2492L21.2688 8.94471C20.4972 4.50397 16.6649 1.28073 12.1576 1.28073C7.65035 1.28073 3.81804 4.50397 3.04518 8.94471L1.94923 15.2479C1.93004 15.3579 1.92044 15.4673 1.92044 15.5767V15.9958C1.92044 17.054 2.78159 17.9151 3.83979 17.9151H4.33947L4.45975 18.3995C4.81291 19.8095 5.82057 20.9931 7.15644 21.5651ZM4.85257 24.9349L6.39957 27.6418V25.5926H8.95871C8.95871 25.0641 9.28053 24.6098 9.73861 24.4147C9.47054 24.0769 9.26261 23.686 9.15257 23.2458L9.12826 23.1486L8.3618 23.313C7.08606 23.5862 5.88967 24.1524 4.85257 24.9349ZM1.36511 23.9899L3.18721 27.1786L4.25437 26.4671L2.47705 23.3565C2.30815 23.0603 1.89741 22.949 1.60502 23.1172C1.45531 23.203 1.34911 23.3399 1.30369 23.5049C1.2589 23.67 1.28065 23.8421 1.36511 23.9899ZM1.28129 32.6302C1.28129 34.3941 2.71633 35.8291 4.48022 35.8291H5.23772C5.16607 35.6282 5.12 35.4145 5.12 35.1893V33.9098C5.12 33.6846 5.16607 33.4709 5.23772 33.27H4.23582L3.77262 34.1957L2.62804 33.6231L3.44505 31.9904H4.46358L2.2269 28.0762C1.60886 29.3129 1.28129 30.6737 1.28129 32.071V32.6302ZM37.433 14.452L34.4362 16.864C34.1068 17.1288 33.6928 17.2754 33.2705 17.2754C32.8483 17.2754 32.4337 17.1295 32.1049 16.864L29.1081 14.4513C27.6871 13.308 26.8727 11.603 26.8727 9.77323C26.8727 9.24093 26.9431 8.71119 27.0826 8.19744L28.4997 2.96912L28.9674 2.94993C30.3717 2.89171 31.7293 2.56478 33.0031 1.97873L33.2705 1.8559L33.538 1.97873C34.8111 2.56478 36.1688 2.89107 37.5737 2.94993L38.0414 2.96912L39.4585 8.19681C39.598 8.71119 39.6684 9.24093 39.6684 9.77259C39.6684 11.6037 38.8533 13.3087 37.433 14.452ZM38.3888 9.77323C38.3888 9.35418 38.3332 8.9364 38.2238 8.53205L37.0491 4.20007C35.9704 4.1137 34.9212 3.8757 33.9103 3.50654V10.8775H32.6308V3.50654C31.6199 3.8757 30.57 4.11306 29.492 4.20007L28.3173 8.53269C28.2079 8.93704 28.1523 9.35482 28.1523 9.77323C28.1523 11.2134 28.7933 12.5557 29.9104 13.4546L32.6308 15.6445V12.1571H33.9103V15.6445L36.6307 13.4552C37.7478 12.5563 38.3888 11.214 38.3888 9.77323ZM36.6569 18.102L30.7114 24.0481L29.8842 23.2209L28.9795 24.1255L30.7114 25.8574L37.5616 19.0066L36.6569 18.102ZM36.6569 22.5805L30.7114 28.5266L29.8842 27.6994L28.9795 28.604L30.7114 30.3359L37.5616 23.4851L36.6569 22.5805ZM29.8842 32.1779L28.9795 33.0825L30.7114 34.8144L37.5616 27.9636L36.6569 27.0589L30.7114 33.0051L29.8842 32.1779Z" fill="#685ED6"/>
</symbol><symbol id="icon-telegram" viewBox="0 0 42 42">
<path d="M40.3721 1.58795C39.986 1.20193 39.4242 1.06871 38.906 1.24023L11.1899 10.4139C10.4347 10.6638 10.8212 11.8319 11.5765 11.5819L39.2926 2.40831C39.4855 2.38814 39.5719 2.47451 39.5517 2.66744L27.7943 38.19C27.7027 38.4666 27.3171 38.4897 27.1931 38.226L22.4454 28.1254L24.6977 24.4898C25.1167 23.8137 24.0707 23.1657 23.6518 23.8419L21.4225 27.4403L15.8609 26.9693L31.2455 11.5846L25.3584 21.0873C24.9394 21.7634 25.9854 22.4115 26.4043 21.7352L35.0873 7.71964C35.4221 7.18031 34.7781 6.53811 34.2394 6.87327L13.8667 19.5466L3.72999 14.768C3.4666 14.6438 3.48989 14.2585 3.76633 14.167L8.49607 12.6016C9.25123 12.3516 8.86463 11.1835 8.10948 11.4335L3.37973 12.9989C2.07409 13.431 1.9613 15.2945 3.20534 15.881L13.3226 20.6503L13.8762 27.5199C13.9002 27.8174 14.1417 28.0567 14.4375 28.0836L21.3409 28.6682L26.0796 38.7494C26.6618 39.9881 28.5306 39.8814 28.9624 38.5766L40.7198 3.05412C40.8914 2.53579 40.7581 1.97406 40.3721 1.58795ZM14.9958 26.0942L14.603 21.2197L14.5507 20.5702L30.3452 10.7449L14.9958 26.0942Z" fill="#685ED6"/>
<path d="M12.0481 29.5781C11.804 29.3417 11.4145 29.348 11.1782 29.592L0.175232 40.9548C-0.376899 41.5249 0.503838 42.3842 1.05909 41.8107L12.062 30.448C12.2984 30.2039 12.2922 29.8145 12.0481 29.5781Z" fill="#685ED6"/>
<path d="M15.9985 29.5947L7.3021 38.6509C6.75276 39.2229 7.63612 40.0794 8.18957 39.5031L16.886 30.447C17.4369 29.8732 16.5496 29.021 15.9985 29.5947Z" fill="#685ED6"/>
<path d="M2.66782 34.8245C2.82942 34.8245 2.99085 34.7612 3.11168 34.6355L11.808 25.5793C12.359 25.0055 11.4715 24.1533 10.9205 24.727L2.22413 33.7832C1.86985 34.1522 2.15868 34.8245 2.66782 34.8245Z" fill="#685ED6"/>
</symbol></svg>