<svg width="77" height="76" viewBox="0 0 77 76" fill="none" xmlns="http://www.w3.org/2000/svg">
<rect x="0.5" width="76" height="76" rx="38" fill="#F1E4FF"/>
<path d="M30.8943 49.4512V46.1552L38.5423 38.2832C40.249 36.4912 41.1023 34.9978 41.1023 33.8032C41.1023 32.9285 40.825 32.2245 40.2703 31.6912C39.737 31.1578 39.0436 30.8912 38.1903 30.8912C36.505 30.8912 35.257 31.7658 34.4463 33.5152L30.7343 31.3392C31.4383 29.8032 32.4516 28.6298 33.7743 27.8192C35.097 27.0085 36.5476 26.6032 38.1263 26.6032C40.153 26.6032 41.8916 27.2432 43.3423 28.5232C44.793 29.7818 45.5183 31.4885 45.5183 33.6432C45.5183 35.9685 44.2916 38.3578 41.8383 40.8112L37.4543 45.1952H45.8703V49.4512H30.8943Z" fill="#685ED6"/>
</svg>
