<svg width="73" height="72" viewBox="0 0 73 72" fill="none" xmlns="http://www.w3.org/2000/svg">
<rect x="0.5" width="72" height="72" rx="36" fill="#F1E4FF"/>
<path d="M38.9162 34.52C40.3362 34.94 41.4862 35.68 42.3662 36.74C43.2662 37.78 43.7162 39.04 43.7162 40.52C43.7162 42.68 42.9862 44.37 41.5262 45.59C40.0862 46.81 38.3162 47.42 36.2162 47.42C34.5762 47.42 33.1062 47.05 31.8062 46.31C30.5262 45.55 29.5962 44.44 29.0162 42.98L32.5562 40.94C33.0762 42.56 34.2962 43.37 36.2162 43.37C37.2762 43.37 38.0962 43.12 38.6762 42.62C39.2762 42.1 39.5762 41.4 39.5762 40.52C39.5762 39.66 39.2762 38.97 38.6762 38.45C38.0962 37.93 37.2762 37.67 36.2162 37.67H35.3162L33.7262 35.27L37.8662 29.87H29.6462V26H42.8462V29.42L38.9162 34.52Z" fill="#685ED6"/>
</svg>
